<?xml version="1.0" encoding="UTF-8" standalone="no"?>
<!-- Created with Inkscape (http://www.inkscape.org/) -->

<svg
   width="512"
   height="512"
   viewBox="0 0 512 512"
   version="1.1"
   id="SVGRoot"
   sodipodi:docname="todolist_icon.svg"
   xml:space="preserve"
   inkscape:version="1.2.1 (9c6d41e410, 2022-07-14)"
   inkscape:export-filename="done_icon.png"
   inkscape:export-xdpi="96"
   inkscape:export-ydpi="96"
   xmlns:inkscape="http://www.inkscape.org/namespaces/inkscape"
   xmlns:sodipodi="http://sodipodi.sourceforge.net/DTD/sodipodi-0.dtd"
   xmlns="http://www.w3.org/2000/svg"
   xmlns:svg="http://www.w3.org/2000/svg"><sodipodi:namedview
     id="namedview261"
     pagecolor="#039a6a"
     bordercolor="#000000"
     borderopacity="0.25"
     inkscape:showpageshadow="2"
     inkscape:pageopacity="0"
     inkscape:pagecheckerboard="0"
     inkscape:deskcolor="#d1d1d1"
     inkscape:document-units="px"
     showgrid="true"
     inkscape:zoom="0.70710678"
     inkscape:cx="-62.225397"
     inkscape:cy="211.42493"
     inkscape:window-width="1920"
     inkscape:window-height="991"
     inkscape:window-x="-9"
     inkscape:window-y="-9"
     inkscape:window-maximized="1"
     inkscape:current-layer="layer1"><inkscape:grid
       type="xygrid"
       id="grid384"
       originx="-0.7362269"
       originy="-2.4152317" /></sodipodi:namedview><defs
     id="defs256" /><g
     inkscape:label="Layer 1"
     inkscape:groupmode="layer"
     id="layer1"><path
       id="rect421"
       style="display:inline;fill:#ffffff;fill-opacity:1;fill-rule:evenodd;stroke-width:103.28;stroke-linecap:round;stroke-linejoin:round;paint-order:fill markers stroke"
       d="m 75.686618,215.97064 c -22.575153,22.57515 -22.613183,58.92265 -0.03803,81.4978 l 94.884282,94.88428 c 0.83386,0.83381 1.67797,1.62383 2.54798,2.39595 0.0266,0.0236 0.0496,0.0523 0.076,0.0771 21.45826,21.37539 55.9637,21.31278 77.39059,-0.1129 L 446.28673,198.97133 c 21.45261,-21.4526 21.49064,-56.01403 0.0386,-77.46664 -21.45261,-21.45261 -56.05205,-21.45261 -77.50466,-1e-5 l -153.0704,153.06984 -58.60388,-58.60388 c -22.57515,-22.57516 -58.884617,-22.57516 -81.459772,0 z m 17.379608,20.72623 0.038,-0.038 c 10.716444,-10.71645 27.959824,-10.67842 38.676274,0.038 l 60.9237,60.92369 -19.62336,19.62337 c -6.96133,6.96133 -11.58951,15.31731 -14.03296,24.1489 L 93.066226,275.41117 c -10.716448,-10.71644 -10.716448,-27.99786 0,-38.7143 z m 98.953474,101.23525 20.49804,-20.49805 16.61901,16.61902 c 10.71645,10.71646 10.75448,27.95984 0.038,38.67627 l -0.038,0.0385 c -8.54726,8.54728 -21.25073,10.25911 -31.48865,5.17207 -1.06137,-0.76744 -2.08509,-1.62878 -3.04238,-2.58595 l -2.58604,-2.58595 c -9.65367,-9.65366 -9.65367,-25.18158 0,-34.83527 z m 43.54409,-43.54409 155.4657,-155.46571 c 9.65366,-9.65367 25.18158,-9.65367 34.83527,0 l 2.58595,2.58604 c 9.65366,9.65367 9.65366,25.1816 0,34.83527 L 267.16653,337.6279 c -2.45092,-9.79178 -7.44573,-19.08285 -15.13585,-26.77298 z" /></g></svg>
